<?xml version="1.0" encoding="iso-8859-1"?>
<!-- Generator: Adobe Illustrator 15.0.2, SVG Export Plug-In  -->
<!--  Created by User:Zirguezi(http://commons.wikimedia.org/wiki/User:Zirguezi) for use on Wikimedia projects. This file is released into the public domain. This applies worldwide. If this is not legally possible: I grant any entity the right to use this work for any purpose, without any conditions, unless such conditions are required by law.-->
<!DOCTYPE svg PUBLIC "-//W3C//DTD SVG 1.1//EN" "http://www.w3.org/Graphics/SVG/1.1/DTD/svg11.dtd" [
	<!ENTITY ns_flows "http://ns.adobe.com/Flows/1.0/">
]>
<svg version="1.1"
	 xmlns="http://www.w3.org/2000/svg" xmlns:xlink="http://www.w3.org/1999/xlink" xmlns:a="http://ns.adobe.com/AdobeSVGViewerExtensions/3.0/"
	 x="0px" y="0px" width="259px" height="317px" viewBox="-6 -6 259 317" enable-background="new -6 -6 259 317"
	 xml:space="preserve">
<defs>
</defs>
<linearGradient id="SVGID_1_" gradientUnits="userSpaceOnUse" x1="122.5005" y1="78.5" x2="122.5005" y2="0.5">
	<stop  offset="0" style="stop-color:#FF0000"/>
	<stop  offset="0.143" style="stop-color:#E81210"/>
	<stop  offset="0.3714" style="stop-color:#C92925"/>
	<stop  offset="0.5945" style="stop-color:#B33A34"/>
	<stop  offset="0.8076" style="stop-color:#A6443D"/>
	<stop  offset="1" style="stop-color:#A14740"/>
</linearGradient>
<path fill="url(#SVGID_1_)" stroke="#000000" stroke-miterlimit="10" d="M244.5,66.5c0,6.627-5.373,12-12,12h-220
	c-6.627,0-12-5.373-12-12v-54c0-6.627,5.373-12,12-12h220c6.627,0,12,5.373,12,12V66.5z"/>
<linearGradient id="SVGID_2_" gradientUnits="userSpaceOnUse" x1="122.5005" y1="189.5" x2="122.5005" y2="111.5005">
	<stop  offset="0" style="stop-color:#29ABE2"/>
	<stop  offset="0.0524" style="stop-color:#299FDA"/>
	<stop  offset="0.2548" style="stop-color:#2B78C1"/>
	<stop  offset="0.4544" style="stop-color:#2C59AC"/>
	<stop  offset="0.648" style="stop-color:#2D439E"/>
	<stop  offset="0.833" style="stop-color:#2E3695"/>
	<stop  offset="1" style="stop-color:#2E3192"/>
</linearGradient>
<path fill="url(#SVGID_2_)" stroke="#000000" stroke-miterlimit="10" d="M244.5,177.5c0,6.627-5.373,12-12,12h-220
	c-6.627,0-12-5.373-12-12v-54c0-6.627,5.373-12,12-12h220c6.627,0,12,5.373,12,12V177.5z"/>
<linearGradient id="SVGID_3_" gradientUnits="userSpaceOnUse" x1="122.5005" y1="302.5" x2="122.5005" y2="224.5">
	<stop  offset="0" style="stop-color:#00FF00"/>
	<stop  offset="0.1559" style="stop-color:#00D70F"/>
	<stop  offset="0.3361" style="stop-color:#00AF1D"/>
	<stop  offset="0.5139" style="stop-color:#009028"/>
	<stop  offset="0.6865" style="stop-color:#007A30"/>
	<stop  offset="0.8513" style="stop-color:#006D35"/>
	<stop  offset="1" style="stop-color:#006837"/>
</linearGradient>
<path fill="url(#SVGID_3_)" stroke="#000000" stroke-miterlimit="10" d="M244.5,290.5c0,6.627-5.373,12-12,12h-220
	c-6.627,0-12-5.373-12-12v-54c0-6.627,5.373-12,12-12h220c6.627,0,12,5.373,12,12V290.5z"/>
<g>
	<line x1="124" y1="74" x2="124" y2="116"/>
	<g>
		<line fill="none" stroke="#000000" stroke-width="2" stroke-miterlimit="10" x1="124" y1="85" x2="124" y2="105"/>
		<g>
			<polygon points="116.067,88 124.044,74.184 132.021,88 			"/>
		</g>
		<g>
			<polygon points="116.067,102 124.044,115.816 132.021,102 			"/>
		</g>
	</g>
</g>
<g>
	<line x1="123" y1="184" x2="123" y2="226"/>
	<g>
		<line fill="none" stroke="#000000" stroke-width="2" stroke-miterlimit="10" x1="123" y1="195" x2="123" y2="215"/>
		<g>
			<polygon points="115.067,198 123.044,184.184 131.021,198 			"/>
		</g>
		<g>
			<polygon points="115.067,212 123.044,225.816 131.021,212 			"/>
		</g>
	</g>
</g>
<g>
	<rect x="16.376" y="16.39" fill="none" width="215.247" height="34.529"/>
	<path d="M24.883,39.063c1.64,0.861,4.264,1.722,6.929,1.722c2.87,0,4.387-1.189,4.387-2.993c0-1.722-1.312-2.706-4.633-3.854
		c-4.592-1.64-7.626-4.182-7.626-8.2c0-4.715,3.977-8.282,10.455-8.282c3.157,0,5.412,0.615,7.052,1.394l-1.394,5.002
		c-1.066-0.533-3.075-1.312-5.74-1.312c-2.706,0-4.018,1.271-4.018,2.665c0,1.763,1.517,2.542,5.125,3.895
		c4.879,1.804,7.134,4.346,7.134,8.241c0,4.633-3.526,8.569-11.111,8.569c-3.157,0-6.273-0.861-7.831-1.722L24.883,39.063z"/>
	<path d="M72.115,31.396c0,9.102-5.453,14.555-13.571,14.555c-8.159,0-12.997-6.191-12.997-14.104
		c0-8.282,5.33-14.473,13.448-14.473C67.482,17.374,72.115,23.729,72.115,31.396z M52.148,31.724c0,5.453,2.542,9.266,6.724,9.266
		c4.223,0,6.642-4.018,6.642-9.389c0-5.002-2.337-9.266-6.642-9.266C54.608,22.335,52.148,26.353,52.148,31.724z"/>
	<path d="M76.256,17.866h16.851v5.125H82.488v6.314h9.922v5.084h-9.922V45.5h-6.232V17.866z"/>
	<path d="M103.193,23.114h-7.462v-5.248h21.238v5.248h-7.544V45.5h-6.232V23.114z"/>
	<path d="M125.906,45.5l-6.56-27.634h6.683l2.092,11.357c0.614,3.321,1.188,6.888,1.64,9.676h0.082
		c0.45-2.993,1.106-6.314,1.804-9.758l2.337-11.275h6.642l2.215,11.644c0.615,3.239,1.066,6.191,1.476,9.266h0.082
		c0.41-3.075,1.025-6.314,1.599-9.635l2.256-11.275h6.355L147.473,45.5h-6.766l-2.336-11.89c-0.533-2.788-0.984-5.371-1.313-8.528
		h-0.082c-0.492,3.116-0.943,5.74-1.6,8.528l-2.623,11.89H125.906z"/>
	<path d="M162.068,38.407l-1.968,7.093h-6.438l8.405-27.634h8.2l8.61,27.634h-6.766l-2.132-7.093H162.068z M169.08,33.733
		l-1.723-5.863c-0.492-1.64-0.984-3.69-1.395-5.33h-0.082c-0.41,1.64-0.819,3.731-1.271,5.33l-1.64,5.863H169.08z"/>
	<path d="M182.527,18.235c2.008-0.328,4.961-0.574,8.322-0.574c4.1,0,6.971,0.615,8.938,2.173c1.681,1.312,2.583,3.28,2.583,5.822
		c0,3.485-2.501,5.904-4.879,6.765v0.123c1.927,0.779,2.992,2.583,3.689,5.125c0.861,3.157,1.682,6.765,2.215,7.831H197
		c-0.41-0.82-1.107-3.034-1.887-6.437c-0.778-3.485-1.967-4.387-4.551-4.428h-1.845V45.5h-6.19V18.235z M188.718,30.125h2.46
		c3.116,0,4.961-1.558,4.961-3.977c0-2.501-1.722-3.813-4.592-3.813c-1.518,0-2.378,0.082-2.829,0.205V30.125z"/>
	<path d="M223.28,33.815h-10.168v6.56h11.357V45.5h-17.589V17.866h17.015v5.125h-10.783v5.74h10.168V33.815z"/>
</g>
<g>
	<rect x="69.601" y="133.234" fill="none" width="150.235" height="34.53"/>
	<path d="M80.028,134.71h6.191v12.218h0.082c0.615-1.066,1.271-2.05,1.927-3.034l6.232-9.184h7.708l-9.143,11.767l9.594,15.867
		h-7.257l-6.806-11.931l-2.337,2.911v9.02h-6.191V134.71z"/>
	<path d="M121.643,150.659h-10.168v6.56h11.357v5.125h-17.589V134.71h17.015v5.125h-10.783v5.74h10.168V150.659z"/>
	<path d="M127.096,135.079c2.009-0.328,4.961-0.574,8.323-0.574c4.1,0,6.97,0.615,8.938,2.173c1.681,1.312,2.582,3.28,2.582,5.822
		c0,3.485-2.5,5.904-4.879,6.765v0.123c1.928,0.779,2.993,2.583,3.69,5.125c0.86,3.156,1.681,6.765,2.214,7.83h-6.396
		c-0.41-0.819-1.106-3.033-1.886-6.437c-0.778-3.485-1.968-4.387-4.551-4.428h-1.845v10.865h-6.191V135.079z M133.287,146.969h2.459
		c3.117,0,4.962-1.558,4.962-3.977c0-2.501-1.722-3.813-4.593-3.813c-1.517,0-2.377,0.082-2.828,0.205V146.969z"/>
	<path d="M151.408,162.344V134.71h7.298l5.74,10.127c1.64,2.911,3.239,6.355,4.511,9.472h0.081
		c-0.368-3.649-0.491-7.38-0.491-11.563v-8.036h5.739v27.634h-6.56l-5.904-10.66c-1.641-2.952-3.484-6.519-4.797-9.758h-0.164
		c0.205,3.69,0.287,7.585,0.287,12.095v8.322H151.408z"/>
	<path d="M196.139,150.659h-10.168v6.56h11.357v5.125h-17.59V134.71h17.016v5.125h-10.783v5.74h10.168V150.659z"/>
	<path d="M201.633,134.71h6.232v22.386h10.988v5.248h-17.221V134.71z"/>
</g>
<g>
	<rect x="15.377" y="251.982" fill="none" width="215.246" height="34.529"/>
	<path d="M24.478,253.458v10.619h10.291v-10.619h6.232v27.634h-6.232V269.53H24.478v11.562h-6.232v-27.634H24.478z"/>
	<path d="M52.891,273.999l-1.968,7.093h-6.438l8.405-27.634h8.2l8.61,27.634h-6.765l-2.132-7.093H52.891z M59.902,269.325
		l-1.722-5.863c-0.492-1.64-0.984-3.69-1.394-5.329h-0.082c-0.41,1.639-0.82,3.73-1.271,5.329l-1.64,5.863H59.902z"/>
	<path d="M73.35,253.827c2.009-0.328,4.961-0.574,8.323-0.574c4.1,0,6.97,0.615,8.938,2.173c1.681,1.313,2.583,3.28,2.583,5.822
		c0,3.484-2.501,5.904-4.879,6.766v0.123c1.927,0.778,2.993,2.582,3.69,5.125c0.861,3.156,1.681,6.765,2.214,7.83h-6.396
		c-0.41-0.819-1.107-3.033-1.886-6.437c-0.779-3.485-1.968-4.388-4.551-4.429h-1.845v10.865H73.35V253.827z M79.541,265.717H82
		c3.116,0,4.961-1.558,4.961-3.977c0-2.501-1.722-3.813-4.592-3.813c-1.517,0-2.378,0.082-2.829,0.205V265.717z"/>
	<path d="M97.662,253.868c2.296-0.369,5.289-0.615,8.405-0.615c5.289,0,8.733,0.983,11.357,2.952
		c2.87,2.132,4.674,5.535,4.674,10.414c0,5.289-1.927,8.938-4.551,11.193c-2.911,2.419-7.38,3.566-12.792,3.566
		c-3.239,0-5.576-0.205-7.093-0.41V253.868z M103.894,276.377c0.533,0.123,1.435,0.123,2.173,0.123
		c5.699,0.041,9.43-3.074,9.43-9.676c0-5.74-3.362-8.773-8.774-8.773c-1.353,0-2.296,0.122-2.829,0.245V276.377z"/>
	<path d="M130.381,281.092l-6.56-27.634h6.683l2.091,11.356c0.614,3.322,1.188,6.889,1.64,9.677h0.082
		c0.451-2.993,1.107-6.313,1.805-9.759l2.336-11.274h6.643l2.215,11.644c0.614,3.24,1.065,6.191,1.475,9.267h0.082
		c0.41-3.075,1.025-6.313,1.6-9.636l2.256-11.274h6.354l-7.134,27.634h-6.766l-2.337-11.89c-0.533-2.788-0.983-5.371-1.312-8.528
		h-0.082c-0.492,3.116-0.943,5.74-1.6,8.528l-2.624,11.89H130.381z"/>
	<path d="M166.543,273.999l-1.969,7.093h-6.438l8.406-27.634h8.199l8.61,27.634h-6.765l-2.133-7.093H166.543z M173.554,269.325
		l-1.722-5.863c-0.492-1.64-0.984-3.69-1.395-5.329h-0.082c-0.41,1.639-0.82,3.73-1.271,5.329l-1.64,5.863H173.554z"/>
	<path d="M187.001,253.827c2.009-0.328,4.961-0.574,8.323-0.574c4.1,0,6.97,0.615,8.938,2.173c1.682,1.313,2.584,3.28,2.584,5.822
		c0,3.484-2.502,5.904-4.879,6.766v0.123c1.926,0.778,2.992,2.582,3.689,5.125c0.861,3.156,1.681,6.765,2.214,7.83h-6.396
		c-0.41-0.819-1.107-3.033-1.887-6.437c-0.779-3.485-1.968-4.388-4.551-4.429h-1.846v10.865h-6.19V253.827z M193.191,265.717h2.461
		c3.115,0,4.961-1.558,4.961-3.977c0-2.501-1.723-3.813-4.592-3.813c-1.518,0-2.379,0.082-2.83,0.205V265.717z"/>
	<path d="M227.754,269.407h-10.168v6.56h11.357v5.125h-17.589v-27.634h17.015v5.125h-10.783v5.74h10.168V269.407z"/>
</g>
<g>
	<rect x="38.882" y="108.123" fill="none" width="18.834" height="78.475"/>
	<path d="M49.583,128.841c1.458-0.054,3.223-0.108,4.987-0.108v-0.036c-1.548-0.396-3.277-0.9-4.699-1.369l-4.735-1.477v-2.143
		l4.681-1.296c1.44-0.396,3.169-0.792,4.753-1.098v-0.036c-1.638-0.054-3.511-0.126-5.023-0.198l-4.609-0.234v-2.539l12.136,0.774
		v3.655l-4.051,1.188c-1.404,0.396-2.917,0.756-4.339,1.026v0.072c1.404,0.324,3.007,0.738,4.357,1.152l4.033,1.278v3.601
		l-12.136,0.648v-2.665L49.583,128.841z"/>
	<path d="M49.438,142.466c-3.223,0-4.7-2.287-4.7-4.646c0-2.575,1.693-4.555,4.538-4.555c2.863,0,4.681,1.873,4.681,4.717
		C53.958,140.666,52.103,142.466,49.438,142.466z M49.348,136.092c-1.512,0-2.646,0.63-2.646,1.801c0,1.08,1.062,1.747,2.665,1.747
		c1.296,0,2.629-0.504,2.629-1.747C51.995,136.597,50.645,136.092,49.348,136.092z"/>
	<path d="M57.721,152.744H47.566c-0.99,0-2.035,0.036-2.629,0.072v-2.431l1.278-0.108v-0.054c-0.972-0.541-1.477-1.621-1.477-2.755
		c0-2.089,1.783-3.763,4.52-3.763c2.971-0.018,4.699,1.836,4.699,3.943c0,1.099-0.396,1.927-0.99,2.323v0.036h4.753V152.744z
		 M50.015,150.007c0.144,0,0.342,0,0.504-0.036c0.72-0.162,1.333-0.756,1.333-1.602c0-1.261-1.116-1.891-2.503-1.891
		c-1.494,0-2.431,0.738-2.431,1.873c0,0.792,0.541,1.44,1.314,1.602c0.198,0.036,0.414,0.054,0.63,0.054H50.015z"/>
	<path d="M47.764,163.238c-1.152,0-2.088,0.035-2.827,0.071v-2.376l1.242-0.127v-0.054c-0.54-0.343-1.44-1.171-1.44-2.755
		c0-1.801,1.117-3.097,3.835-3.097h5.167v2.737h-4.735c-1.278,0-2.053,0.414-2.053,1.386c0,0.757,0.522,1.206,0.954,1.368
		c0.162,0.072,0.36,0.108,0.594,0.108h5.24v2.737H47.764z"/>
	<path d="M57.721,165.432v2.736H44.937v-2.736H57.721z"/>
	<path d="M48.466,172.487c-1.134,0.071-1.674,1.206-1.674,2.484c0,0.937,0.126,1.692,0.378,2.431l-1.855,0.36
		c-0.378-0.9-0.558-1.999-0.558-3.187c0-2.989,1.729-4.699,4.483-4.699c2.233,0,4.699,1.386,4.699,4.447
		c0,2.844-2.214,3.925-4.393,3.925c-0.468,0-0.882-0.054-1.081-0.091V172.487z M50.339,175.71c0.666,0,1.782-0.288,1.782-1.548
		c0-1.152-1.063-1.621-1.782-1.693V175.71z"/>
	<path d="M47.313,179.866c-0.306,0.505-0.648,1.549-0.648,2.358c0,0.828,0.27,1.171,0.72,1.171c0.468,0,0.684-0.271,1.026-1.278
		c0.612-1.836,1.603-2.539,2.646-2.521c1.657,0,2.899,1.405,2.899,3.584c0,1.025-0.252,1.926-0.522,2.467l-1.891-0.469
		c0.216-0.396,0.504-1.17,0.504-1.908c0-0.666-0.27-1.045-0.703-1.045c-0.432,0-0.648,0.343-1.026,1.423
		c-0.576,1.675-1.44,2.358-2.719,2.377c-1.656,0-2.863-1.278-2.863-3.8c0-1.152,0.27-2.178,0.63-2.844L47.313,179.866z"/>
</g>
</svg>
